<svg xmlns="http://www.w3.org/2000/svg" viewBox="0 0 1024 1024" role="img" aria-labelledby="title desc">
  <title id="title">Scriptorium Logo</title>
  <desc id="desc">A stylized open codex with a gold spine and feather pen on a dark green field.</desc>
  <defs>
    <linearGradient id="field" x1="170" y1="120" x2="850" y2="910" gradientUnits="userSpaceOnUse">
      <stop offset="0" stop-color="#143a32"/>
      <stop offset="0.55" stop-color="#0d2528"/>
      <stop offset="1" stop-color="#091619"/>
    </linearGradient>
    <linearGradient id="page-left" x1="230" y1="270" x2="500" y2="780" gradientUnits="userSpaceOnUse">
      <stop offset="0" stop-color="#fff8e8"/>
      <stop offset="1" stop-color="#e8d7b7"/>
    </linearGradient>
    <linearGradient id="page-right" x1="795" y1="270" x2="520" y2="780" gradientUnits="userSpaceOnUse">
      <stop offset="0" stop-color="#fffaf0"/>
      <stop offset="1" stop-color="#ead9ba"/>
    </linearGradient>
    <linearGradient id="gold" x1="360" y1="195" x2="675" y2="830" gradientUnits="userSpaceOnUse">
      <stop offset="0" stop-color="#f5d37f"/>
      <stop offset="0.45" stop-color="#c79a39"/>
      <stop offset="1" stop-color="#8f6820"/>
    </linearGradient>
    <filter id="shadow" x="-20%" y="-20%" width="140%" height="150%">
      <feDropShadow dx="0" dy="28" stdDeviation="30" flood-color="#020707" flood-opacity="0.38"/>
    </filter>
    <clipPath id="round">
      <rect x="64" y="64" width="896" height="896" rx="210"/>
    </clipPath>
  </defs>

  <g clip-path="url(#round)">
    <rect width="1024" height="1024" fill="url(#field)"/>
    <path d="M168 784C278 704 382 690 512 754c130-64 234-50 344 30V924H168V784Z" fill="#061113" opacity="0.5"/>
    <path d="M196 196h632c28 0 50 22 50 50v532c0 28-22 50-50 50H196c-28 0-50-22-50-50V246c0-28 22-50 50-50Z" fill="#173f36" opacity="0.45"/>

    <g filter="url(#shadow)">
      <path d="M512 292c-78-56-177-78-296-58-31 5-54 32-54 64v432c0 24 22 42 46 36 114-27 208-7 304 58V292Z" fill="#3f2d20"/>
      <path d="M512 292c78-56 177-78 296-58 31 5 54 32 54 64v432c0 24-22 42-46 36-114-27-208-7-304 58V292Z" fill="#3f2d20"/>

      <path d="M224 258c106-15 196 8 288 76v434c-88-58-184-80-288-62-14 3-26-8-26-22V290c0-16 11-29 26-32Z" fill="url(#page-left)"/>
      <path d="M800 258c-106-15-196 8-288 76v434c88-58 184-80 288-62 14 3 26-8 26-22V290c0-16-11-29-26-32Z" fill="url(#page-right)"/>

      <path d="M488 308c9 6 17 13 24 20 7-7 15-14 24-20v488c-8 4-16 8-24 13-8-5-16-9-24-13V308Z" fill="url(#gold)"/>
      <path d="M512 324v472" stroke="#6f4f19" stroke-width="10" stroke-linecap="round" opacity="0.45"/>

      <path d="M270 374c58-8 109 0 153 24" fill="none" stroke="#9d8158" stroke-width="15" stroke-linecap="round" opacity="0.48"/>
      <path d="M270 455c58-8 109 0 153 24" fill="none" stroke="#9d8158" stroke-width="15" stroke-linecap="round" opacity="0.42"/>
      <path d="M270 536c58-8 109 0 153 24" fill="none" stroke="#9d8158" stroke-width="15" stroke-linecap="round" opacity="0.36"/>

      <path d="M754 374c-58-8-109 0-153 24" fill="none" stroke="#9d8158" stroke-width="15" stroke-linecap="round" opacity="0.48"/>
      <path d="M754 455c-58-8-109 0-153 24" fill="none" stroke="#9d8158" stroke-width="15" stroke-linecap="round" opacity="0.42"/>
      <path d="M754 536c-58-8-109 0-153 24" fill="none" stroke="#9d8158" stroke-width="15" stroke-linecap="round" opacity="0.36"/>
    </g>

    <g stroke-linecap="round" stroke-linejoin="round">
      <path d="M639 374c62-154 162-208 237-198-1 86-63 181-219 238 33-57 75-111 138-165-77 48-124 97-156 125Z" fill="#fff4d8"/>
      <path d="M639 374c62-154 162-208 237-198-1 86-63 181-219 238" fill="none" stroke="#c69a3a" stroke-width="13"/>
      <path d="M656 410c39-76 81-125 139-161" fill="none" stroke="#8f6820" stroke-width="14"/>
      <path d="M711 304c-18-10-34-14-51-16" fill="none" stroke="#d7b45a" stroke-width="9" opacity="0.72"/>
      <path d="M747 270c-16-14-30-23-48-30" fill="none" stroke="#d7b45a" stroke-width="9" opacity="0.72"/>
      <path d="M784 239c-13-16-26-28-41-38" fill="none" stroke="#d7b45a" stroke-width="9" opacity="0.72"/>
      <path d="M688 334c-24 3-43 9-61 20" fill="none" stroke="#d7b45a" stroke-width="9" opacity="0.68"/>
      <path d="M727 296c-23-1-42 2-61 10" fill="none" stroke="#d7b45a" stroke-width="9" opacity="0.68"/>
      <path d="M768 260c-19-5-37-7-54-5" fill="none" stroke="#d7b45a" stroke-width="9" opacity="0.68"/>
      <path d="M636 413l-48 65" fill="none" stroke="#6f4f19" stroke-width="18"/>
      <path d="M588 478l-23 48" fill="none" stroke="#3f2d20" stroke-width="12"/>
      <path d="M565 526l35-39" fill="none" stroke="#c69a3a" stroke-width="10"/>
    </g>
  </g>
</svg>
